<svg xmlns="http://www.w3.org/2000/svg" width="92.4" height="42.9"><path fill="#3774B9" d="M2.4 32.7H3s.1 0 .1.1v4.1s0 .1-.1.1h-.6s-.1 0-.1-.1V34l-.6 1s0 .1-.1 0h-.2l-.6-1v2.9H0v-4.3h.8l.7 1.4.9-1.3c-.1 0 0 0 0 0m3.5 4.2l-.2-.6H4.4l-.1.6s0 .1-.1.1h-.6c-.1 0-.1 0-.1-.1l1.1-4.1s0-.1.1-.1h.7s.1 0 .1.1l1.1 4.1s0 .1-.1.1l-.6-.1m-1.3-1.2h1l-.5-2-.5 2c-.1-.1-.1-.1 0 0m2.5 1.2v-4.2h.8v3.6h1.7s.1 0 .1.1v.5s0 .1-.1.1l-2.5-.1c.1 0 0 0 0 0m5.2 0l-.2-.6h-1.2l-.1.6s0 .1-.1.1H10c-.1 0-.1 0-.1-.1l1.1-4.1s0-.1.1-.1h.7s.1 0 .1.1l1.1 4.1s0 .1-.1.1l-.6-.1M11 35.7h1l-.5-2-.5 2c0-.1 0-.1 0 0m2.6 1.2c-.1 0-.1 0 0 0v-4.1s0-.1.1-.1h1.2c.3 0 .7.1.9.3.2.2.4.5.4.9v1.8c0 .3-.1.6-.4.9-.3.2-.6.3-.9.3h-1.3m.7-.6h.6c.2 0 .3-.1.4-.2.1-.1.2-.3.2-.5V34c0-.2 0-.4-.2-.5-.1-.1-.3-.2-.4-.2h-.6v3c-.1 0-.1 0 0 0m2.5.6v-4.2h.8V37h-.1l-.7-.1c.1 0 0 0 0 0m3.9-3.6H19v1.1h1.2v.7H19v1.2h1.7s.1 0 .1.1v.5s0 .1-.1.1h-2.3s-.1 0-.1-.1v-4.2h2.5v.1l-.1.5m1.1 3.5c-.2-.1-.4-.2-.5-.4-.1-.2-.2-.4-.2-.6v-.2s0-.1.1-.1h.6v.2c0 .2.1.3.2.4.1.1.3.2.5.2s.3 0 .4-.1c.1-.1.2-.2.2-.4 0-.1 0-.2-.1-.3-.1-.1-.1-.2-.2-.2-.1-.1-.3-.2-.5-.3l-.6-.3c-.2-.1-.3-.2-.4-.4-.3-.5-.2-1 .2-1.4.3-.2.6-.3.9-.3.2 0 .5 0 .7.1.2.1.4.2.5.4.1.2.2.4.2.6v.4h-.7v-.2c0-.2-.1-.3-.2-.4-.1-.1-.3-.2-.5-.2-.1 0-.3 0-.4.1-.1.1-.2.2-.2.4 0 .1 0 .2.1.3.1.1.1.2.2.2.1.1.3.2.5.3.3.2.5.3.6.4.1.1.3.2.3.4.1.2.1.3.1.5 0 .3-.1.6-.4.8-.3.2-.6.3-1 .3.1 0-.2-.1-.4-.2m3.9.1c-.1 0-.1 0 0 0v-4.2h.8V37h-.1l-.7-.1m3.5-4.1c0-.1 0-.1 0 0h.7v4.3h-.7s-.1 0-.1-.1l-1.3-2.7V37s0 .1-.1.1h-.6s-.1 0-.1-.1v-4.1s0-.1.1-.1h.6s.1 0 .1.1l1.3 2.7.1-2.8m3.9.5c-.1 0-.1 0 0 0h-1.7v1.1h1.2v.6s0 .1-.1.1h-1.1v1.7s0 .1-.1.1h-.7v-4.3H33s.1 0 .1.1v.6m2.9 0h-1.7v1.1h1.1s.1 0 .1.1v.6h-1.2v1.2h1.8v.7h-2.5v-4.3H36s.1 0 .1.1l-.1.5m1.2 3.5c-.2-.1-.4-.3-.5-.4-.1-.2-.2-.4-.2-.7v-1.8c0-.2.1-.5.2-.7.1-.2.3-.3.5-.4.2-.1.5-.2.7-.2.2 0 .5 0 .7.2.2.1.4.2.5.4.1.2.2.4.2.7v.1h-.7s-.1 0-.1-.1v-.1c0-.2-.1-.3-.2-.5-.3-.2-.6-.2-.9 0-.1.1-.2.3-.2.5v1.8c0 .3.2.6.6.7s.6-.2.7-.6v-.2s0-.1.1-.1h.6s.1 0 .1.1c0 .2-.1.5-.2.7-.1.2-.3.3-.5.4-.2.1-.5.2-.7.2-.3.2-.5.1-.7 0m5.1-4v.6h-1V37h-.8v-3.6h-1v-.6s0-.1.1-.1l2.7.1c0-.1 0-.1 0 0m.6 4.1v-4.1s0-.1.1-.1h.6s.1 0 .1.1v4.1s0 .1-.1.1l-.7-.1c.1 0 0 0 0 0m3.9-3.6h-1.7v1.1h1.2v.7h-1.2v1.2h1.7s.1 0 .1.1v.5s0 .1-.1.1h-2.3s-.1 0-.1-.1v-4.2h2.5v.1l-.1.5m1.2 3.5c-.2-.1-.4-.3-.5-.5-.1-.2-.2-.4-.2-.7v-2.9s0-.1.1-.1h.7v3c0 .2.1.4.2.5.1.1.3.2.5.2s.3-.1.5-.2c.1-.1.2-.3.2-.5v-3h.6v3c0 .2-.1.5-.2.7-.1.2-.3.4-.5.5-.4.2-.9.2-1.4 0m3.3 0c-.2-.1-.4-.2-.5-.4-.1-.2-.2-.4-.2-.6v-.2s0-.1.1-.1h.6v.2c0 .2.1.3.2.4.1.1.3.2.5.2s.3 0 .4-.1c.1-.1.2-.2.2-.4 0-.1 0-.2-.1-.3-.1-.1-.1-.2-.2-.2-.1-.1-.3-.2-.5-.3l-.6-.3c-.2-.1-.3-.2-.4-.4-.3-.5-.2-1 .2-1.4.3-.2.6-.3.9-.3.2 0 .5 0 .7.1.2.1.4.2.5.4.1.2.2.4.2.6v.4h-.7v-.2c0-.2-.1-.3-.2-.4-.1-.1-.3-.2-.5-.2-.1 0-.3 0-.4.1-.1.1-.2.2-.2.4 0 .1 0 .2.1.3.1.1.1.2.2.2.1.1.3.2.5.3.3.2.5.3.6.4.1.1.3.2.3.4.1.2.1.3.1.5 0 .3-.1.6-.4.8 0 .2-.4.3-.7.3-.3 0-.5-.1-.7-.2m5-3.5h-1.7v1.1h1.2v.7h-1.2v1.2h1.7s.1 0 .1.1v.5s0 .1-.1.1H54s-.1 0-.1-.1v-4.2h2.5v.1l-.1.5m1.1 3.5c-.2-.1-.4-.2-.5-.4-.1-.2-.2-.4-.2-.6v-.3h.6s.1 0 .1.1v.1c0 .2.1.3.2.4.1.1.3.2.5.2s.3 0 .4-.1c.1-.1.2-.2.1-.4 0-.1 0-.2-.1-.3-.1-.1-.1-.2-.2-.2-.1-.1-.3-.2-.5-.3l-.6-.3c-.1-.1-.3-.2-.4-.4-.3-.5-.2-1 .2-1.4.3-.2.6-.3.9-.3.2 0 .5 0 .7.1.2.1.4.2.5.4.1.2.2.4.2.6v.4h-.7v-.2c0-.2-.1-.3-.2-.4-.1-.1-.3-.2-.5-.2-.1 0-.3 0-.4.1-.1.1-.2.2-.1.4 0 .1 0 .2.1.3.1.1.1.2.2.2.1.1.3.2.5.3.3.2.5.3.6.4.1.1.3.2.3.4.1.2.1.3.1.5 0 .3-.1.6-.4.8-.3.2-.6.3-.9.3 0 0-.3 0-.5-.2m-27.2 2.4h-1.7v1.1h1.2v.7s0 .1-.1.1h-1.1v1.2h1.7s.1 0 .1.1v.5s0 .1-.1.1h-2.4v-4.3h2.5v.1l-.1.4m-1.6-1l.3-.7h.7l-.4.6h-.1l-.5.1c.1 0 .1 0 0 0m4.6.4h.6s.1 0 .1.1v4.1s0 .1-.1.1h-.6s-.1 0-.1-.1V40l-.6 1s0 .1-.1 0h-.2l-.6-1v2.8s0 .1-.1.1h-.6s-.1 0-.1-.1v-4.2h.8l.8 1.3.8-1.3m3.9.6s-.1 0 0 0h-1.7v1.1h1.1s.1 0 .1.1v.7h-1.2v1.2h1.7v.7h-2.5v-4.3H37s.1 0 .1.1v.4m2.5 3.6l-.6-1.7h-.5v1.7s0 .1-.1.1h-.7v-4.3h1.5c.2 0 .4 0 .6.2.2.1.3.3.4.4.1.2.1.4.1.6 0 .2-.1.5-.2.7-.1.2-.3.3-.5.4l.7 1.8h-.1l-.6.1c.1 0 0 0 0 0m-1.2-3.5v1.2h.6c.2 0 .3-.1.4-.2.1-.1.2-.3.2-.5s0-.3-.2-.5c-.1-.1-.3-.2-.4-.2l-.6.2c0-.1 0-.1 0 0m3.1 3.4c-.2-.1-.4-.3-.5-.4-.1-.2-.2-.4-.2-.7v-1.8c0-.2.1-.5.2-.7.1-.2.3-.3.5-.4.2-.1.4-.2.7-.2.2 0 .5 0 .7.2.2.1.4.2.5.4.1.2.2.4.2.6v.2h-.8v-.2c0-.2-.1-.3-.2-.4-.1-.1-.3-.2-.5-.2s-.3.1-.4.2c-.1.1-.2.3-.2.5v1.8c0 .3.2.6.6.6h.1c.2 0 .3 0 .4-.2.1-.1.2-.3.2-.4v-.5h-.6v-.6h1.4v1c0 .3-.1.7-.4.9-.3.2-.6.4-1 .3-.3.2-.5.1-.7 0m5.1-3.5h-1.7v1.1h1.2v.8h-1.2v1.2h1.7s.1 0 .1.1v.5s0 .1-.1.1h-2.3s-.1 0-.1-.1v-4.2h2.5v.1l-.1.4m2.7-.5c0-.1.1-.1 0 0h.6s.1 0 .1.1v4.1s0 .1-.1.1h-.6s-.1 0-.1-.1L48 40.1v2.7s0 .1-.1.1h-.7v-4.3h.7s.1 0 .1.1l1.3 2.7v-2.7m4 0v.6h-1v3.6h-.8v-3.6h-1v-.6s0-.1.1-.1l2.7.1c-.1-.1 0-.1 0 0m3 .5h-1.7v1.1h1.2v.8h-1.2v1.2h1.7s.1 0 .1.1v.5s0 .1-.1.1H54s-.1 0-.1-.1v-4.2h2.5v.1l-.1.4m1.1 3.5c-.2-.1-.4-.2-.5-.4-.1-.2-.2-.4-.2-.6v-.2s0-.1.1-.1h.6v.2c0 .2.1.3.2.4.1.1.3.2.5.2s.3 0 .4-.1c.1-.1.2-.2.1-.4 0-.1 0-.2-.1-.3-.1-.1-.1-.2-.2-.2-.1-.1-.3-.2-.5-.3l-.6-.3c-.2-.1-.3-.2-.4-.4-.3-.5-.2-1 .2-1.4.3-.2.6-.3.9-.3.2 0 .5 0 .7.1.2.1.4.2.5.4.1.2.2.4.2.6v.2h-.7v-.2c0-.2-.1-.3-.2-.4-.1-.1-.3-.2-.5-.2-.1 0-.3 0-.4.1-.1.1-.2.2-.1.4 0 .1 0 .2.1.3.1.1.1.2.2.2.1.1.3.2.5.3.3.2.5.3.6.4.1.1.3.2.3.4.1.2.1.3.1.5 0 .3-.1.6-.4.8-.3.2-.6.3-.9.3 0 .2-.3.1-.5 0"/><path fill="#000D20" d="M12.9 11.9c.3.1.5.4.7.7.2.5.2 1.1.2 1.6s0 1-.2 1.5c-.1.3-.3.5-.6.5s-.6-.1-.8-.2c-1.4-.7-2.9-1-4.4-1.1-2.2 0-4.4.9-6.1 2.3-.3.3-.8.6-1.2.7-.3 0-.4-.2-.4-.5 0-.6.2-1.1.5-1.6.9-1.5 2.1-2.7 3.6-3.5 1.5-.8 3.3-1.2 5-1.2 1.3 0 2.5.3 3.7.8m.2 14.1c-.8.7-1.7 1.3-2.7 1.6-1 .4-2 .6-3.1.6-1.9.1-3.8-.5-5.3-1.8C.8 25.2.1 23.6.2 21.9c-.1-1.1.4-2.2 1.3-2.9.6-.5 1.3-.9 2.1-.9.2 0 .4.1.5.2.2.2.2.4.2.6-.1 1.5.2 3 1 4.3.7.9 1.9 1.3 3.6 1.3.6 0 1.3-.1 1.9-.3.7-.2 1.3-.4 1.9-.7.2-.2.4-.2.7-.3.2 0 .4.3.4 1 0 .6-.2 1.3-.7 1.8M10.5 0c1.3 0 2.7.2 3.9.6 1.1.4 2.1 1 2.9 1.8.8.9 1.5 2 1.8 3.3.5 1.6.7 3.2.6 4.8v14.1c0 .4-.1.9-.4 1.2-.3.4-.6.7-1 1-.4.3-.8.5-1.2.7-.4.1-.8.2-1.2.2-.6 0-.9-.4-.9-1.1V11.4c0-5.1-2-7.7-6.1-7.7-2.3 0-4.5.7-6.4 2-.3.4-.8.6-1.4.8-.2 0-.4-.2-.4-.5.1-.6.4-1.3.8-1.7C3.7 1.6 7-.1 10.5 0m22.6 2.2c.9-.7 2-1.3 3.1-1.7.9-.3 1.9-.5 2.9-.5 3 0 5.2.8 6.6 2.5S47.8 7 47.8 11v13.3c0 1-.5 1.8-1.3 2.4-.7.6-1.6.9-2.5 1-.6 0-.9-.4-.9-1.1v-14c0-.8-.1-1.8-.2-3 0-.9-.2-1.8-.6-2.6-.3-.6-.6-1.2-1.1-1.7-.4-.6-1-1-1.7-1.2-.8-.2-1.7-.4-2.5-.3-2 0-4.7 1.3-8.2 4-.4.3-.8.6-1.3.6-.3 0-.5-.3-.5-.9V3.4c0-1 .5-1.8 1.3-2.4.7-.6 1.5-1 2.5-1 .6 0 .9.4.9 1.1v.7c0 .6.1.9.4.9.4-.1.7-.2 1-.5M27 26.6v-14c-.1-.8.2-1.6.7-2.2.5-.6 1-1 1.7-1.4.4-.3 1-.6 1.5-.6s.8.4.8 1.1v15c0 1-.5 1.9-1.3 2.4-.7.6-1.6.9-2.5 1-.6-.2-.9-.6-.9-1.3m61.6-5.1c.1-1.5-.4-3-1.5-4-1.3-.9-2.8-1.4-4.4-1.5-1.5-.1-2.9-.4-4.3-.9-1-.3-2-.8-2.8-1.5-.6-.5-1.1-1.2-1.5-1.9-.3-.7-.5-1.5-.5-2.2 0-.9.5-1.7 1.2-2.2.6-.5 1.3-.9 2.1-.9.4 0 .7.3.8.8.1.5.3 1 .4 1.5.1.4.4.7.6 1.1.2.3.5.5.8.7.4.2.8.4 1.2.5.6.1 1.1.3 1.6.4s1.2.2 2.2.3c1.3.1 2.6.5 3.8 1 .9.4 1.8 1 2.4 1.8.5.7.9 1.4 1.1 2.3.2.9.3 1.8.3 2.7 0 1.1-.2 2.2-.6 3.2-.5 1.6-1.6 3-3 4-.4.3-.9.5-1.5.6-.3 0-.4-.1-.4-.4.1-.3.2-.5.4-.8 1.1-1.4 1.6-3 1.6-4.6m1.7-20c.4.3.7.7.8 1.2 0 .4-.4 1-1.1 1.6-.5.5-1.2.9-2 .9-.2 0-.3 0-.5-.1-.1 0-.3-.1-.6-.2-.2-.1-.4-.2-.6-.2-1.4-.6-2.9-1-4.4-1-2.3 0-4.5.5-6.4 1.7-.1.1-.3.2-.5.3s-.4.3-.5.4c-.1.1-.2.1-.3.1-.2 0-.4-.1-.4-.4.1-.6.4-1.2.8-1.6C76.9 1.4 80.1 0 84.3 0c1.1 0 2.3.1 3.4.4.9.2 1.8.6 2.6 1.1M78.5 23.2c.6.3 1 .6 1.2.7.4.2.7.3 1.1.4.6.2 1.1.2 1.7.2.8 0 1.5-.1 2.3-.3.7-.2 1.1-.3 1.2-.3.4 0 .6.2.6.6 0 .4-.2.7-.4 1-.3.5-.7.9-1.2 1.2-.6.5-1.3.9-2.1 1.1-.9.3-1.9.5-2.9.5-1.5 0-2.9-.3-4.2-1-1.3-.7-2-1.4-2-2.1.1-.7.5-1.3 1.1-1.7.6-.5 1.3-.8 2.1-.8.5 0 1 .2 1.5.5M66.9 35c.2-.2.4-.3.6-.5.3-.1.5-.2.8-.2.3 0 .6.1.9.2.5.3.7.7.7 1.5v3.4h-1.5v-2.8c0-.2 0-.5-.1-.7-.1-.2-.4-.4-.7-.4-.8 0-.8.6-.8 1.2v2.7h-1.5v-4.9h1.5l.1.5zm4.5 2.7c.4.4.9.6 1.5.7.4 0 .9-.1.9-.5 0-.1-.1-.2-.2-.3-.3-.1-.6-.2-.9-.2-.2 0-.4-.1-.7-.2-.3-.1-.6-.2-.8-.4-.2-.2-.4-.6-.4-.9 0-.8.7-1.7 2.1-1.7.8 0 1.6.2 2.2.7l-.8.9c-.4-.3-.9-.5-1.3-.5-.6 0-.7.2-.7.4 0 .3.3.3.8.4 1 .2 2.1.4 2.1 1.6s-1.2 1.7-2.3 1.7c-.9 0-1.8-.3-2.4-.9l.9-.8zm5.8-1.4c0-.2.1-.5.3-.6.2-.2.5-.3.7-.3.3 0 .5.1.7.3.2.2.3.4.3.7l-2-.1zm2.4 1.4c-.2.5-.7.8-1.2.7-.6 0-1.1-.5-1.1-1.1v-.1h3.5c0-.8-.2-1.6-.7-2.2-1-1-2.6-.9-3.6.1-.5.5-.8 1.2-.7 1.9-.1 1.3.8 2.4 2.1 2.5h.4c.7 0 1.4-.2 1.9-.7.2-.2.4-.5.6-.8l-1.2-.3zM83 35c.4-.4.9-.6 1.4-.6v1.3H84c-.7.1-.9.4-.9 1v2.6h-1.5v-4.9H83v.6zm3.6 0c.3-.4.9-.7 1.4-.7.5 0 1 .2 1.4.6.4-.4.9-.6 1.5-.6s1.1.2 1.4.7c.1.4.2.8.1 1.1v3.2H91v-2.6c0-.3 0-.6-.1-.8-.1-.3-.4-.5-.6-.4-.2 0-.3.1-.5.2-.3.2-.3.5-.3 1v2.7H88v-2.9c0-.2 0-.5-.1-.7-.1-.2-.4-.3-.6-.3-.1 0-.3 0-.4.1-.3.2-.4.6-.3.9v2.8h-1.4v-4.9h1.4v.6zm-24.1-2.3h1.7v6.7h-1.7z"/><path fill="#E64415" d="M63.6 40.7c-.6-.1-1.2.2-1.3.8v.5c.1.4.4.7.8.8.6.2 1.2-.2 1.4-.8.1-.5-.3-1.2-.9-1.3"/><path fill="#3774B9" d="M65.9 0C67 0 68 .2 69 .7c1.1.4 1.6 1 1.6 1.7-.1.7-.5 1.3-1.1 1.7-.5.5-1.1.8-1.9.9-.7-.1-1.4-.3-2-.7-.6-.3-1.4-.5-2.1-.5-.4 0-.8.1-1.2.2-.5.2-.9.4-1.3.8-.5.4-.9.7-1.2 1-.3.3-.9.8-1.6 1.5-.8.7-1.4 1.3-1.8 1.7-.3.3-.6.4-1 .5-.4 0-.6-.3-.6-1V3.3c0-.9.5-1.8 1.3-2.3.6-.6 1.5-1 2.4-1 .6 0 .9.4.9 1.1v1.5c0 .6.1.8.4.8.2 0 .5-.2.9-.6C62.6.9 64.3 0 65.9 0M54.8 26.6V13.5c-.1-.8.2-1.6.7-2.2.5-.6 1-1.1 1.7-1.5.4-.4 1-.6 1.5-.7.5 0 .8.4.8 1.1v14.2c0 .9-.5 1.8-1.3 2.4-.7.6-1.6.9-2.5.9-.6 0-1-.4-.9-1.1"/></svg>